<svg version="1.1" viewBox="0.0 0.0 377.9527559055118 377.9527559055118" fill="none" stroke="none" stroke-linecap="square" stroke-miterlimit="10" xmlns:xlink="http://www.w3.org/1999/xlink" xmlns="http://www.w3.org/2000/svg"><clipPath id="p.0"><path d="m0 0l377.95276 0l0 377.95276l-377.95276 0l0 -377.95276z" clip-rule="nonzero"/></clipPath><g clip-path="url(#p.0)"><path fill="#000000" fill-opacity="0.0" d="m0 0l377.95276 0l0 377.95276l-377.95276 0z" fill-rule="evenodd"/><path fill="#6c767c" d="m-0.015748031 -0.010498688l377.95276 0l0 377.95276l-377.95276 0z" fill-rule="evenodd"/><path fill="#000000" fill-opacity="0.0" d="m29.984251 160.68242l317.98425 0l0 56.566925l-317.98425 0z" fill-rule="evenodd"/><path fill="#ffffff" d="m59.151093 199.1224l0 -21.796875l7.625 0q3.96875 0 6.015625 1.53125q2.046875 1.515625 2.046875 4.4375q0 1.609375 -0.828125 2.828125q-0.8125 1.21875 -2.28125 1.78125q1.6875 0.421875 2.640625 1.703125q0.96875 1.265625 0.96875 3.109375q0 3.140625 -2.015625 4.765625q-2.0 1.609375 -5.703125 1.640625l-8.46875 0zm4.484375 -9.484375l0 5.875l3.84375 0q1.59375 0 2.484375 -0.75q0.890625 -0.765625 0.890625 -2.09375q0 -3.0 -3.109375 -3.03125l-4.109375 0zm0 -3.171875l3.328125 0q3.390625 -0.0625 3.390625 -2.71875q0 -1.484375 -0.859375 -2.125q-0.859375 -0.65625 -2.71875 -0.65625l-3.140625 0l0 5.5zm19.36119 12.65625l-4.34375 0l0 -16.203125l4.34375 0l0 16.203125zm-4.609375 -20.390625q0 -0.96875 0.65625 -1.59375q0.65625 -0.640625 1.78125 -0.640625q1.109375 0 1.765625 0.640625q0.65625 0.625 0.65625 1.59375q0 0.984375 -0.671875 1.625q-0.65625 0.625 -1.75 0.625q-1.09375 0 -1.765625 -0.625q-0.671875 -0.640625 -0.671875 -1.625zm12.737473 20.390625l-4.34375 0l0 -23.0l4.34375 0l0 23.0zm2.8780975 -8.21875q0 -3.78125 1.703125 -6.03125q1.703125 -2.25 4.640625 -2.25q2.375 0 3.90625 1.765625l0 -8.265625l4.34375 0l0 23.0l-3.90625 0l-0.203125 -1.71875q-1.625 2.015625 -4.15625 2.015625q-2.859375 0 -4.59375 -2.25q-1.734375 -2.25 -1.734375 -6.265625zm4.328125 0.3125q0 2.28125 0.796875 3.5q0.796875 1.203125 2.296875 1.203125q2.015625 0 2.828125 -1.6875l0 -6.390625q-0.796875 -1.703125 -2.796875 -1.703125q-3.125 0 -3.125 5.078125zm35.345703 2.03125l2.125 -10.328125l4.171875 0l-4.125 16.203125l-3.625 0l-3.0625 -10.1875l-3.078125 10.1875l-3.609375 0l-4.125 -16.203125l4.171875 0l2.109375 10.3125l2.96875 -10.3125l3.125 0l2.953125 10.328125zm13.012527 5.875l-4.34375 0l0 -16.203125l4.34375 0l0 16.203125zm-4.609375 -20.390625q0 -0.96875 0.65625 -1.59375q0.65625 -0.640625 1.78125 -0.640625q1.109375 0 1.765625 0.640625q0.65625 0.625 0.65625 1.59375q0 0.984375 -0.671875 1.625q-0.65625 0.625 -1.75 0.625q-1.09375 0 -1.765625 -0.625q-0.671875 -0.640625 -0.671875 -1.625zm17.268723 8.25q-0.890625 -0.125 -1.5625 -0.125q-2.453125 0 -3.21875 1.671875l0 10.59375l-4.328125 0l0 -16.203125l4.09375 0l0.125 1.9375q1.296875 -2.234375 3.59375 -2.234375q0.71875 0 1.359375 0.203125l-0.0625 4.15625zm1.1159973 3.921875q0 -3.78125 1.703125 -6.03125q1.703125 -2.25 4.640625 -2.25q2.375 0 3.90625 1.765625l0 -8.265625l4.34375 0l0 23.0l-3.90625 0l-0.203125 -1.71875q-1.625 2.015625 -4.15625 2.015625q-2.859375 0 -4.59375 -2.25q-1.734375 -2.25 -1.734375 -6.265625zm4.328125 0.3125q0 2.28125 0.796875 3.5q0.796875 1.203125 2.296875 1.203125q2.015625 0 2.828125 -1.6875l0 -6.390625q-0.796875 -1.703125 -2.796875 -1.703125q-3.125 0 -3.125 5.078125zm20.626953 -0.3125q0 -3.71875 1.765625 -6.0q1.78125 -2.28125 4.796875 -2.28125q2.65625 0 4.140625 1.828125l0.1875 -1.53125l3.921875 0l0 15.671875q0 2.125 -0.96875 3.6875q-0.96875 1.578125 -2.71875 2.390625q-1.75 0.828125 -4.109375 0.828125q-1.78125 0 -3.46875 -0.71875q-1.6875 -0.703125 -2.5625 -1.828125l1.921875 -2.625q1.609375 1.8125 3.921875 1.8125q1.71875 0 2.671875 -0.921875q0.96875 -0.921875 0.96875 -2.625l0 -0.859375q-1.5 1.6875 -3.9375 1.6875q-2.921875 0 -4.734375 -2.28125q-1.796875 -2.28125 -1.796875 -6.046875l0 -0.1875zm4.328125 0.3125q0 2.203125 0.875 3.453125q0.890625 1.25 2.4375 1.25q1.96875 0 2.828125 -1.484375l0 -6.8125q-0.875 -1.484375 -2.796875 -1.484375q-1.5625 0 -2.453125 1.28125q-0.890625 1.265625 -0.890625 3.796875zm21.248611 8.203125q-3.5625 0 -5.796875 -2.1875q-2.234375 -2.1875 -2.234375 -5.8125l0 -0.421875q0 -2.4375 0.9375 -4.359375q0.953125 -1.9375 2.671875 -2.96875q1.734375 -1.046875 3.953125 -1.046875q3.3125 0 5.21875 2.109375q1.921875 2.09375 1.921875 5.9375l0 1.765625l-10.3125 0q0.203125 1.578125 1.25 2.546875q1.0625 0.953125 2.6875 0.953125q2.5 0 3.90625 -1.8125l2.125 2.375q-0.984375 1.375 -2.640625 2.15625q-1.65625 0.765625 -3.6875 0.765625zm-0.484375 -13.296875q-1.296875 0 -2.09375 0.875q-0.796875 0.875 -1.015625 2.484375l6.015625 0l0 -0.34375q-0.03125 -1.4375 -0.78125 -2.21875q-0.75 -0.796875 -2.125 -0.796875zm14.179916 13.0l-4.34375 0l0 -23.0l4.34375 0l0 23.0zm12.940598 0q-0.296875 -0.578125 -0.4375 -1.453125q-1.5625 1.75 -4.078125 1.75q-2.390625 0 -3.953125 -1.375q-1.5625 -1.375 -1.5625 -3.46875q0 -2.578125 1.90625 -3.953125q1.90625 -1.375 5.515625 -1.390625l2.0 0l0 -0.9375q0 -1.109375 -0.578125 -1.78125q-0.578125 -0.6875 -1.828125 -0.6875q-1.078125 0 -1.703125 0.53125q-0.625 0.515625 -0.625 1.4375l-4.328125 0q0 -1.40625 0.859375 -2.609375q0.875 -1.203125 2.453125 -1.875q1.59375 -0.6875 3.578125 -0.6875q2.984375 0 4.75 1.515625q1.765625 1.5 1.765625 4.21875l0 7.015625q0.015625 2.3125 0.640625 3.5l0 0.25l-4.375 0zm-3.578125 -3.015625q0.953125 0 1.765625 -0.421875q0.8125 -0.421875 1.203125 -1.140625l0 -2.78125l-1.625 0q-3.25 0 -3.453125 2.234375l-0.015625 0.265625q0 0.796875 0.5625 1.328125q0.578125 0.515625 1.5625 0.515625zm9.951447 -5.203125q0 -3.78125 1.703125 -6.03125q1.703125 -2.25 4.640625 -2.25q2.375 0 3.90625 1.765625l0 -8.265625l4.34375 0l0 23.0l-3.90625 0l-0.203125 -1.71875q-1.625 2.015625 -4.15625 2.015625q-2.859375 0 -4.59375 -2.25q-1.734375 -2.25 -1.734375 -6.265625zm4.328125 0.3125q0 2.28125 0.796875 3.5q0.796875 1.203125 2.296875 1.203125q2.015625 0 2.828125 -1.6875l0 -6.390625q-0.796875 -1.703125 -2.796875 -1.703125q-3.125 0 -3.125 5.078125zm21.070953 8.203125q-3.5625 0 -5.796875 -2.1875q-2.234375 -2.1875 -2.234375 -5.8125l0 -0.421875q0 -2.4375 0.9375 -4.359375q0.953125 -1.9375 2.671875 -2.96875q1.734375 -1.046875 3.953125 -1.046875q3.3125 0 5.21875 2.109375q1.921875 2.09375 1.921875 5.9375l0 1.765625l-10.3125 0q0.203125 1.578125 1.25 2.546875q1.0625 0.953125 2.6875 0.953125q2.5 0 3.90625 -1.8125l2.125 2.375q-0.984375 1.375 -2.640625 2.15625q-1.65625 0.765625 -3.6875 0.765625zm-0.484375 -13.296875q-1.296875 0 -2.09375 0.875q-0.796875 0.875 -1.015625 2.484375l6.015625 0l0 -0.34375q-0.03125 -1.4375 -0.78125 -2.21875q-0.75 -0.796875 -2.125 -0.796875zm13.586151 -3.203125l0.140625 1.875q1.734375 -2.171875 4.6562805 -2.171875q2.578125 0 3.828125 1.515625q1.25 1.515625 1.28125 4.515625l0 10.46875l-4.3125 0l0 -10.359375q0 -1.375 -0.609375 -2.0q-0.59375 -0.625 -1.9844055 -0.625q-1.828125 0 -2.75 1.5625l0 11.421875l-4.3125 0l0 -16.203125l4.0625 0zm13.419312 14.078125q0 -1.03125 0.6875 -1.671875q0.703125 -0.65625 1.75 -0.65625q1.0625 0 1.75 0.65625q0.703125 0.640625 0.703125 1.671875q0 1.015625 -0.6875 1.65625q-0.6875 0.640625 -1.765625 0.640625q-1.0625 0 -1.75 -0.640625q-0.6875 -0.640625 -0.6875 -1.65625zm8.906464 0q0 -1.03125 0.6875 -1.671875q0.703125 -0.65625 1.75 -0.65625q1.0625 0 1.75 0.65625q0.703125 0.640625 0.703125 1.671875q0 1.015625 -0.6875 1.65625q-0.6875 0.640625 -1.765625 0.640625q-1.0625 0 -1.75 -0.640625q-0.6875 -0.640625 -0.6875 -1.65625zm8.906494 0q0 -1.03125 0.6875 -1.671875q0.703125 -0.65625 1.75 -0.65625q1.0625 0 1.75 0.65625q0.703125 0.640625 0.703125 1.671875q0 1.015625 -0.6875 1.65625q-0.6875 0.640625 -1.765625 0.640625q-1.0625 0 -1.75 -0.640625q-0.6875 -0.640625 -0.6875 -1.65625z" fill-rule="nonzero"/></g></svg>