<svg version="1.1" viewBox="0.0 0.0 453.54330708661416 453.54330708661416" fill="none" stroke="none" stroke-linecap="square" stroke-miterlimit="10" xmlns:xlink="http://www.w3.org/1999/xlink" xmlns="http://www.w3.org/2000/svg"><clipPath id="p.0"><path d="m0 0l453.5433 0l0 453.5433l-453.5433 0l0 -453.5433z" clip-rule="nonzero"/></clipPath><g clip-path="url(#p.0)"><path fill="#000000" fill-opacity="0.0" d="m0 0l453.5433 0l0 453.5433l-453.5433 0z" fill-rule="evenodd"/><path fill="#6c767c" d="m0 -0.002624672l453.5433 0l0 453.5433l-453.5433 0z" fill-rule="evenodd"/><path fill="#000000" fill-opacity="0.0" d="m18.866142 166.17323l415.811 0l0 121.19685l-415.811 0z" fill-rule="evenodd"/><path fill="#ffffff" d="m36.19451 199.2876l9.03125 0l0 2.765625l-12.484375 0l0 -19.90625l3.453125 0l0 17.140625zm20.210938 2.765625q-0.21875 -0.421875 -0.390625 -1.375q-1.578125 1.65625 -3.875 1.65625q-2.234375 0 -3.640625 -1.265625q-1.40625 -1.28125 -1.40625 -3.15625q0 -2.375 1.75 -3.625q1.765625 -1.265625 5.03125 -1.265625l2.03125 0l0 -0.984375q0 -1.140625 -0.640625 -1.828125q-0.640625 -0.6875 -1.953125 -0.6875q-1.140625 0 -1.859375 0.5625q-0.71875 0.5625 -0.71875 1.4375l-3.328125 0q0 -1.21875 0.796875 -2.265625q0.8125 -1.0625 2.203125 -1.65625q1.390625 -0.609375 3.09375 -0.609375q2.59375 0 4.140625 1.3125q1.546875 1.296875 1.59375 3.65625l0 6.671875q0 2.0 0.5625 3.1875l0 0.234375l-3.390625 0zm-3.65625 -2.390625q0.984375 0 1.84375 -0.46875q0.875 -0.484375 1.3125 -1.296875l0 -2.796875l-1.78125 0q-1.859375 0 -2.796875 0.65625q-0.921875 0.640625 -0.921875 1.8125q0 0.953125 0.640625 1.53125q0.640625 0.5625 1.703125 0.5625zm9.3359375 -5.109375q0 -3.421875 1.578125 -5.484375q1.59375 -2.078125 4.265625 -2.078125q2.34375 0 3.796875 1.640625l0 -7.578125l3.328125 0l0 21.0l-3.015625 0l-0.15625 -1.53125q-1.5 1.8125 -3.984375 1.8125q-2.59375 0 -4.203125 -2.09375q-1.609375 -2.09375 -1.609375 -5.6875zm3.328125 0.28125q0 2.25 0.859375 3.515625q0.875 1.265625 2.46875 1.265625q2.046875 0 2.984375 -1.8125l0 -6.3125q-0.921875 -1.78125 -2.953125 -1.78125q-1.609375 0 -2.484375 1.28125q-0.875 1.265625 -0.875 3.84375zm19.617188 7.5q-3.15625 0 -5.125 -1.984375q-1.953125 -2.0 -1.953125 -5.3125l0 -0.40625q0 -2.21875 0.84375 -3.953125q0.859375 -1.75 2.40625 -2.71875q1.546875 -0.96875 3.4375 -0.96875q3.03125 0 4.671875 1.921875q1.65625 1.921875 1.65625 5.453125l0 1.34375l-9.671875 0q0.15625 1.828125 1.21875 2.90625q1.078125 1.0625 2.703125 1.0625q2.28125 0 3.71875 -1.84375l1.796875 1.703125q-0.890625 1.328125 -2.375 2.0625q-1.484375 0.734375 -3.328125 0.734375zm-0.390625 -12.6875q-1.375 0 -2.21875 0.96875q-0.84375 0.953125 -1.0625 2.65625l6.328125 0l0 -0.25q-0.109375 -1.65625 -0.890625 -2.515625q-0.78125 -0.859375 -2.15625 -0.859375zm11.978516 -2.390625l0.09375 1.71875q1.640625 -1.984375 4.3125 -1.984375q4.625 0 4.703125 5.28125l0 9.78125l-3.328125 0l0 -9.578125q0 -1.421875 -0.609375 -2.09375q-0.59375 -0.671875 -1.984375 -0.671875q-2.0 0 -2.984375 1.8125l0 10.53125l-3.328125 0l0 -14.796875l3.125 0zm30.185547 9.671875q0 -1.3125 -0.921875 -2.015625q-0.921875 -0.71875 -3.328125 -1.4375q-2.40625 -0.734375 -3.828125 -1.625q-2.71875 -1.703125 -2.71875 -4.453125q0 -2.40625 1.953125 -3.96875q1.96875 -1.5625 5.109375 -1.5625q2.078125 0 3.703125 0.765625q1.6249924 0.765625 2.5468674 2.1875q0.9375 1.421875 0.9375 3.140625l-3.4531174 0q0 -1.5625 -0.984375 -2.4375q-0.96875 -0.890625 -2.78125 -0.890625q-1.703125 0 -2.640625 0.734375q-0.921875 0.71875 -0.921875 2.015625q0 1.09375 1.0 1.828125q1.015625 0.734375 3.34375 1.421875q2.328125 0.6875 3.734375 1.578125q1.4062424 0.875 2.0624924 2.015625q0.65625 1.140625 0.65625 2.671875q0 2.484375 -1.90625 3.96875q-1.9062424 1.46875 -5.1718674 1.46875q-2.171875 0 -3.984375 -0.796875q-1.8125 -0.8125 -2.8125 -2.21875q-1.0 -1.40625 -1.0 -3.28125l3.453125 0q0 1.6875 1.125 2.625q1.125 0.921875 3.21875 0.921875q1.796875 0 2.703125 -0.71875q0.90625 -0.734375 0.90625 -1.9375zm9.71093 5.125l-3.3125 0l0 -14.796875l3.3125 0l0 14.796875zm-3.53125 -18.640625q0 -0.765625 0.484375 -1.265625q0.5 -0.5 1.390625 -0.5q0.90625 0 1.390625 0.5q0.5 0.5 0.5 1.265625q0 0.75 -0.5 1.25q-0.484375 0.5 -1.390625 0.5q-0.890625 0 -1.390625 -0.5q-0.484375 -0.5 -0.484375 -1.25zm13.666016 18.921875q-3.15625 0 -5.125 -1.984375q-1.953125 -2.0 -1.953125 -5.3125l0 -0.40625q0 -2.21875 0.84375 -3.953125q0.859375 -1.75 2.40625 -2.71875q1.546875 -0.96875 3.4375 -0.96875q3.03125 0 4.671875 1.921875q1.65625 1.921875 1.65625 5.453125l0 1.34375l-9.671875 0q0.15625 1.828125 1.21875 2.90625q1.078125 1.0625 2.703125 1.0625q2.28125 0 3.71875 -1.84375l1.796875 1.703125q-0.890625 1.328125 -2.375 2.0625q-1.484375 0.734375 -3.328125 0.734375zm-0.390625 -12.6875q-1.375 0 -2.21875 0.96875q-0.84375 0.953125 -1.0625 2.65625l6.328125 0l0 -0.25q-0.109375 -1.65625 -0.890625 -2.515625q-0.78125 -0.859375 -2.15625 -0.859375zm19.419922 9.75l7.875 0l0 2.65625l-12.0 0l0 -2.171875l7.5 -9.9375l-7.359375 0l0 -2.6875l11.578125 0l0 2.109375l-7.59375 10.03125zm19.503906 1.203125q-1.46875 1.734375 -4.15625 1.734375q-2.40625 0 -3.65625 -1.40625q-1.234375 -1.421875 -1.234375 -4.078125l0 -9.59375l3.328125 0l0 9.546875q0 2.8125 2.328125 2.8125q2.421875 0 3.28125 -1.734375l0 -10.625l3.3125 0l0 14.796875l-3.125 0l-0.078125 -1.453125zm13.105469 1.734375q-3.15625 0 -5.125 -1.984375q-1.953125 -2.0 -1.953125 -5.3125l0 -0.40625q0 -2.21875 0.84375 -3.953125q0.859375 -1.75 2.40625 -2.71875q1.546875 -0.96875 3.4375 -0.96875q3.03125 0 4.671875 1.921875q1.65625 1.921875 1.65625 5.453125l0 1.34375l-9.671875 0q0.15625 1.828125 1.21875 2.90625q1.078125 1.0625 2.703125 1.0625q2.28125 0 3.71875 -1.84375l1.796875 1.703125q-0.890625 1.328125 -2.375 2.0625q-1.484375 0.734375 -3.328125 0.734375zm-0.390625 -12.6875q-1.375 0 -2.21875 0.96875q-0.84375 0.953125 -1.0625 2.65625l6.328125 0l0 -0.25q-0.109375 -1.65625 -0.890625 -2.515625q-0.78125 -0.859375 -2.15625 -0.859375zm16.65039 0.640625q-0.65625 -0.109375 -1.359375 -0.109375q-2.28125 0 -3.078125 1.75l0 10.125l-3.3125 0l0 -14.796875l3.171875 0l0.078125 1.65625q1.203125 -1.921875 3.328125 -1.921875q0.71875 0 1.1875 0.1875l-0.015625 3.109375zm10.390625 7.75q0 -0.890625 -0.734375 -1.359375q-0.734375 -0.46875 -2.4375 -0.8125q-1.6875 -0.359375 -2.828125 -0.90625q-2.484375 -1.203125 -2.484375 -3.484375q0 -1.921875 1.609375 -3.203125q1.625 -1.28125 4.109375 -1.28125q2.65625 0 4.28125 1.3125q1.640625 1.3125 1.640625 3.40625l-3.328125 0q0 -0.96875 -0.71875 -1.59375q-0.703125 -0.640625 -1.875 -0.640625q-1.09375 0 -1.78125 0.515625q-0.6875 0.5 -0.6875 1.34375q0 0.765625 0.640625 1.1875q0.640625 0.421875 2.59375 0.859375q1.953125 0.421875 3.0625 1.015625q1.125 0.59375 1.65625 1.4375q0.546875 0.828125 0.546875 2.015625q0 2.0 -1.65625 3.25q-1.65625 1.234375 -4.328125 1.234375q-1.828125 0 -3.25 -0.65625q-1.421875 -0.671875 -2.21875 -1.8125q-0.78125 -1.15625 -0.78125 -2.46875l3.21875 0q0.078125 1.171875 0.890625 1.8125q0.828125 0.625 2.171875 0.625q1.3125 0 2.0 -0.5q0.6875 -0.5 0.6875 -1.296875zm10.310547 -14.375l0 3.59375l2.625 0l0 2.46875l-2.625 0l0 8.25q0 0.84375 0.328125 1.234375q0.34375 0.375 1.203125 0.375q0.578125 0 1.171875 -0.140625l0 2.5625q-1.140625 0.328125 -2.1875 0.328125q-3.828125 0 -3.828125 -4.234375l0 -8.375l-2.4375 0l0 -2.46875l2.4375 0l0 -3.59375l3.3125 0zm18.642578 18.671875q-3.15625 0 -5.125 -1.984375q-1.953125 -2.0 -1.953125 -5.3125l0 -0.40625q0 -2.21875 0.84375 -3.953125q0.859375 -1.75 2.40625 -2.71875q1.546875 -0.96875 3.4375 -0.96875q3.0312653 0 4.6718903 1.921875q1.65625 1.921875 1.65625 5.453125l0 1.34375l-9.67189 0q0.15625 1.828125 1.21875 2.90625q1.078125 1.0625 2.703125 1.0625q2.2812653 0 3.7187653 -1.84375l1.796875 1.703125q-0.890625 1.328125 -2.375 2.0625q-1.4843903 0.734375 -3.3281403 0.734375zm-0.390625 -12.6875q-1.375 0 -2.21875 0.96875q-0.84375 0.953125 -1.0625 2.65625l6.3281403 0l0 -0.25q-0.109375 -1.65625 -0.89064026 -2.515625q-0.78125 -0.859375 -2.15625 -0.859375zm12.431656 12.40625l-3.3125 0l0 -14.796875l3.3125 0l0 14.796875zm-3.53125 -18.640625q0 -0.765625 0.484375 -1.265625q0.5 -0.5 1.390625 -0.5q0.90625 0 1.390625 0.5q0.5 0.5 0.5 1.265625q0 0.75 -0.5 1.25q-0.484375 0.5 -1.390625 0.5q-0.890625 0 -1.390625 -0.5q-0.484375 -0.5 -0.484375 -1.25zm10.228516 3.84375l0.09375 1.71875q1.640625 -1.984375 4.3125 -1.984375q4.625 0 4.703125 5.28125l0 9.78125l-3.328125 0l0 -9.578125q0 -1.421875 -0.609375 -2.09375q-0.59375 -0.671875 -1.984375 -0.671875q-2.0 0 -2.984375 1.8125l0 10.53125l-3.328125 0l0 -14.796875l3.125 0zm25.498047 6.203125l-2.25 2.390625l0 6.203125l-3.453125 0l0 -19.90625l3.453125 0l0 9.34375l1.90625 -2.375l5.828125 -6.96875l4.1875 0l-7.390625 8.8125l7.8125 11.09375l-4.09375 0l-6.0 -8.59375zm20.46289 8.59375q-0.21875 -0.421875 -0.390625 -1.375q-1.578125 1.65625 -3.875 1.65625q-2.234375 0 -3.640625 -1.265625q-1.40625 -1.28125 -1.40625 -3.15625q0 -2.375 1.75 -3.625q1.765625 -1.265625 5.03125 -1.265625l2.03125 0l0 -0.984375q0 -1.140625 -0.640625 -1.828125q-0.640625 -0.6875 -1.953125 -0.6875q-1.140625 0 -1.859375 0.5625q-0.71875 0.5625 -0.71875 1.4375l-3.328125 0q0 -1.21875 0.796875 -2.265625q0.8125 -1.0625 2.203125 -1.65625q1.390625 -0.609375 3.09375 -0.609375q2.59375 0 4.140625 1.3125q1.546875 1.296875 1.59375 3.65625l0 6.671875q0 2.0 0.5625 3.1875l0 0.234375l-3.390625 0zm-3.65625 -2.390625q0.984375 0 1.84375 -0.46875q0.875 -0.484375 1.3125 -1.296875l0 -2.796875l-1.78125 0q-1.859375 0 -2.796875 0.65625q-0.921875 0.640625 -0.921875 1.8125q0 0.953125 0.640625 1.53125q0.640625 0.5625 1.703125 0.5625zm14.1171875 -16.0l0 3.59375l2.625 0l0 2.46875l-2.625 0l0 8.25q0 0.84375 0.328125 1.234375q0.34375 0.375 1.203125 0.375q0.578125 0 1.171875 -0.140625l0 2.5625q-1.140625 0.328125 -2.1875 0.328125q-3.828125 0 -3.828125 -4.234375l0 -8.375l-2.4375 0l0 -2.46875l2.4375 0l0 -3.59375l3.3125 0zm8.701172 15.734375l7.875 0l0 2.65625l-12.0 0l0 -2.171875l7.5 -9.9375l-7.359375 0l0 -2.6875l11.578125 0l0 2.109375l-7.59375 10.03125zm16.832031 2.9375q-3.15625 0 -5.125 -1.984375q-1.953125 -2.0 -1.953125 -5.3125l0 -0.40625q0 -2.21875 0.84375 -3.953125q0.859375 -1.75 2.40625 -2.71875q1.546875 -0.96875 3.4375 -0.96875q3.03125 0 4.671875 1.921875q1.65625 1.921875 1.65625 5.453125l0 1.34375l-9.671875 0q0.15625 1.828125 1.21875 2.90625q1.078125 1.0625 2.703125 1.0625q2.28125 0 3.71875 -1.84375l1.796875 1.703125q-0.890625 1.328125 -2.375 2.0625q-1.484375 0.734375 -3.328125 0.734375zm-0.390625 -12.6875q-1.375 0 -2.21875 0.96875q-0.84375 0.953125 -1.0625 2.65625l6.328125 0l0 -0.25q-0.109375 -1.65625 -0.890625 -2.515625q-0.78125 -0.859375 -2.15625 -0.859375zm11.978516 -2.390625l0.09375 1.71875q1.640625 -1.984375 4.3125 -1.984375q4.625 0 4.703125 5.28125l0 9.78125l-3.328125 0l0 -9.578125q0 -1.421875 -0.609375 -2.09375q-0.59375 -0.671875 -1.984375 -0.671875q-2.0 0 -2.984375 1.8125l0 10.53125l-3.328125 0l0 -14.796875l3.125 0zm25.478516 7.546875q0 3.453125 -1.546875 5.5q-1.53125 2.03125 -4.21875 2.03125q-2.609375 0 -4.046875 -1.875l-0.171875 1.59375l-3.0 0l0 -21.0l3.3125 0l0 7.625q1.4375 -1.6875 3.875 -1.6875q2.703125 0 4.25 2.015625q1.546875 2.0 1.546875 5.609375l0 0.1875zm-3.328125 -0.28125q0 -2.40625 -0.84375 -3.609375q-0.84375 -1.203125 -2.46875 -1.203125q-2.15625 0 -3.03125 1.890625l0 6.09375q0.890625 1.921875 3.0625 1.921875q1.5625 0 2.40625 -1.15625q0.84375 -1.171875 0.875 -3.515625l0 -0.421875zm9.638672 7.53125l-3.3125 0l0 -14.796875l3.3125 0l0 14.796875zm-3.53125 -18.640625q0 -0.765625 0.484375 -1.265625q0.5 -0.5 1.390625 -0.5q0.90625 0 1.390625 0.5q0.5 0.5 0.5 1.265625q0 0.75 -0.5 1.25q-0.484375 0.5 -1.390625 0.5q-0.890625 0 -1.390625 -0.5q-0.484375 -0.5 -0.484375 -1.25zm10.681641 18.640625l-3.3125 0l0 -21.0l3.3125 0l0 21.0zm2.9941406 -7.5q0 -3.421875 1.578125 -5.484375q1.59375 -2.078125 4.265625 -2.078125q2.34375 0 3.796875 1.640625l0 -7.578125l3.328125 0l0 21.0l-3.015625 0l-0.15625 -1.53125q-1.5 1.8125 -3.984375 1.8125q-2.59375 0 -4.203125 -2.09375q-1.609375 -2.09375 -1.609375 -5.6875zm3.328125 0.28125q0 2.25 0.859375 3.515625q0.875 1.265625 2.46875 1.265625q2.046875 0 2.984375 -1.8125l0 -6.3125q-0.921875 -1.78125 -2.953125 -1.78125q-1.609375 0 -2.484375 1.28125q-0.875 1.265625 -0.875 3.84375z" fill-rule="nonzero"/><path fill="#ffffff" d="m78.20037 222.46573q1.625 -1.875 4.109375 -1.875q4.734375 0 4.796875 5.390625l0 9.671875l-3.328125 0l0 -9.546875q0 -1.53125 -0.65625 -2.15625q-0.65625 -0.640625 -1.953125 -0.640625q-1.984375 0 -2.96875 1.78125l0 10.5625l-3.328125 0l0 -21.0l3.328125 0l0 7.8125zm11.638672 5.65625q0 -2.171875 0.859375 -3.90625q0.859375 -1.75 2.421875 -2.6875q1.5625 -0.9375 3.578125 -0.9375q3.0 0 4.859375 1.921875q1.875 1.921875 2.03125 5.109375l0 0.78125q0 2.1875 -0.84375 3.921875q-0.828125 1.71875 -2.40625 2.671875q-1.5625 0.9375 -3.609375 0.9375q-3.125 0 -5.015625 -2.078125q-1.875 -2.09375 -1.875 -5.578125l0 -0.15625zm3.328125 0.28125q0 2.28125 0.9375 3.578125q0.953125 1.296875 2.625 1.296875q1.6875 0 2.625 -1.3125q0.9375 -1.3125 0.9375 -3.84375q0 -2.25 -0.96875 -3.5625q-0.96875 -1.3125 -2.625 -1.3125q-1.625 0 -2.578125 1.296875q-0.953125 1.296875 -0.953125 3.859375zm19.316406 4.875q1.25 0 2.0625 -0.71875q0.828125 -0.734375 0.875 -1.796875l3.125 0q-0.046875 1.375 -0.859375 2.578125q-0.796875 1.1875 -2.1875 1.890625q-1.375 0.703125 -2.96875 0.703125q-3.109375 0 -4.9375 -2.015625q-1.8125 -2.015625 -1.8125 -5.546875l0 -0.34375q0 -3.375 1.796875 -5.40625q1.8125 -2.03125 4.9375 -2.03125q2.640625 0 4.296875 1.546875q1.65625 1.53125 1.734375 4.03125l-3.125 0q-0.046875 -1.28125 -0.875 -2.09375q-0.8125 -0.828125 -2.0625 -0.828125q-1.609375 0 -2.484375 1.171875q-0.875 1.171875 -0.890625 3.546875l0 0.53125q0 2.40625 0.859375 3.59375q0.875 1.1875 2.515625 1.1875zm11.859375 -10.8125q1.625 -1.875 4.1093674 -1.875q4.734375 0 4.796875 5.390625l0 9.671875l-3.328125 0l0 -9.546875q0 -1.53125 -0.65625 -2.15625q-0.65625 -0.640625 -1.9531174 -0.640625q-1.984375 0 -2.96875 1.78125l0 10.5625l-3.328125 0l0 -21.0l3.328125 0l0 7.8125zm12.732414 17.671875l-1.78125 -1.0625q0.78125 -1.25 1.078125 -2.171875q0.296875 -0.921875 0.3125 -1.875l0 -2.59375l2.984375 0l0 2.390625q-0.015625 1.453125 -0.734375 2.90625q-0.71875 1.46875 -1.859375 2.40625zm21.625 -5.9375q-1.46875 1.734375 -4.15625 1.734375q-2.40625 0 -3.65625 -1.40625q-1.234375 -1.421875 -1.234375 -4.078125l0 -9.59375l3.328125 0l0 9.546875q0 2.8125 2.328125 2.8125q2.421875 0 3.28125 -1.734375l0 -10.625l3.3125 0l0 14.796875l-3.125 0l-0.078125 -1.453125zm9.714844 -13.34375l0.09375 1.546875q1.5625 -1.8125 4.265625 -1.8125q2.96875 0 4.0625 2.265625q1.609375 -2.265625 4.53125 -2.265625q2.453125 0 3.640625 1.359375q1.203125 1.34375 1.234375 3.984375l0 9.71875l-3.328125 0l0 -9.625q0 -1.40625 -0.609375 -2.0625q-0.609375 -0.65625 -2.03125 -0.65625q-1.140625 0 -1.859375 0.609375q-0.71875 0.609375 -1.0 1.59375l0.015625 10.140625l-3.328125 0l0 -9.734375q-0.0625 -2.609375 -2.671875 -2.609375q-1.984375 0 -2.828125 1.625l0 10.71875l-3.3125 0l0 -14.796875l3.125 0zm37.054688 14.796875q-0.21875 -0.421875 -0.390625 -1.375q-1.578125 1.65625 -3.875 1.65625q-2.234375 0 -3.640625 -1.265625q-1.40625 -1.28125 -1.40625 -3.15625q0 -2.375 1.75 -3.625q1.765625 -1.265625 5.03125 -1.265625l2.03125 0l0 -0.984375q0 -1.140625 -0.640625 -1.828125q-0.640625 -0.6875 -1.953125 -0.6875q-1.140625 0 -1.859375 0.5625q-0.71875 0.5625 -0.71875 1.4375l-3.328125 0q0 -1.21875 0.796875 -2.265625q0.8125 -1.0625 2.203125 -1.65625q1.390625 -0.609375 3.09375 -0.609375q2.59375 0 4.140625 1.3125q1.546875 1.296875 1.59375 3.65625l0 6.671875q0 2.0 0.5625 3.1875l0 0.234375l-3.390625 0zm-3.65625 -2.390625q0.984375 0 1.84375 -0.46875q0.875 -0.484375 1.3125 -1.296875l0 -2.796875l-1.78125 0q-1.859375 0 -2.796875 0.65625q-0.921875 0.640625 -0.921875 1.8125q0 0.953125 0.640625 1.53125q0.640625 0.5625 1.703125 0.5625zm-3.984375 -16.28125q0 -0.6875 0.453125 -1.15625q0.46875 -0.46875 1.265625 -0.46875q0.8125 0 1.28125 0.46875q0.46875 0.46875 0.46875 1.15625q0 0.671875 -0.46875 1.140625q-0.46875 0.46875 -1.28125 0.46875q-0.796875 0 -1.265625 -0.46875q-0.453125 -0.46875 -0.453125 -1.140625zm6.25 0.015625q0 -0.6875 0.453125 -1.15625q0.46875 -0.46875 1.265625 -0.46875q0.8125 0 1.28125 0.46875q0.46875 0.46875 0.46875 1.15625q0 0.671875 -0.46875 1.140625q-0.46875 0.46875 -1.28125 0.46875q-0.796875 0 -1.265625 -0.46875q-0.453125 -0.46875 -0.453125 -1.140625zm10.9765625 5.46875q1.625 -1.875 4.109375 -1.875q4.734375 0 4.796875 5.390625l0 9.671875l-3.328125 0l0 -9.546875q0 -1.53125 -0.65625 -2.15625q-0.65625 -0.640625 -1.953125 -0.640625q-1.984375 0 -2.96875 1.78125l0 10.5625l-3.328125 0l0 -21.0l3.328125 0l0 7.8125zm15.341797 -1.609375l0.09375 1.71875q1.640625 -1.984375 4.3125 -1.984375q4.625 0 4.703125 5.28125l0 9.78125l-3.328125 0l0 -9.578125q0 -1.421875 -0.609375 -2.09375q-0.59375 -0.671875 -1.984375 -0.671875q-2.0 0 -2.984375 1.8125l0 10.53125l-3.328125 0l0 -14.796875l3.125 0zm16.02539 14.796875l-3.3125 0l0 -21.0l3.3125 0l0 21.0zm7.1503906 0l-3.3125 0l0 -14.796875l3.3125 0l0 14.796875zm-3.53125 -18.640625q0 -0.765625 0.484375 -1.265625q0.5 -0.5 1.390625 -0.5q0.90625 0 1.390625 0.5q0.5 0.5 0.5 1.265625q0 0.75 -0.5 1.25q-0.484375 0.5 -1.390625 0.5q-0.890625 0 -1.390625 -0.5q-0.484375 -0.5 -0.484375 -1.25zm13.228531 16.265625q1.25 0 2.0625 -0.71875q0.828125 -0.734375 0.875 -1.796875l3.125 0q-0.046875 1.375 -0.859375 2.578125q-0.796875 1.1875 -2.1875 1.890625q-1.375 0.703125 -2.96875 0.703125q-3.109375 0 -4.9375 -2.015625q-1.8125 -2.015625 -1.8125 -5.546875l0 -0.34375q0 -3.375 1.796875 -5.40625q1.8125 -2.03125 4.9375 -2.03125q2.640625 0 4.296875 1.546875q1.65625 1.53125 1.734375 4.03125l-3.125 0q-0.046875 -1.28125 -0.875 -2.09375q-0.8125 -0.828125 -2.0625 -0.828125q-1.609375 0 -2.484375 1.171875q-0.875 1.171875 -0.890625 3.546875l0 0.53125q0 2.40625 0.859375 3.59375q0.875 1.1875 2.515625 1.1875zm11.859375 -10.8125q1.625 -1.875 4.109375 -1.875q4.734375 0 4.796875 5.390625l0 9.671875l-3.328125 0l0 -9.546875q0 -1.53125 -0.65625 -2.15625q-0.65625 -0.640625 -1.953125 -0.640625q-1.984375 0 -2.96875 1.78125l0 10.5625l-3.328125 0l0 -21.0l3.328125 0l0 7.8125zm18.779297 13.46875q-3.15625 0 -5.125 -1.984375q-1.953125 -2.0 -1.953125 -5.3125l0 -0.40625q0 -2.21875 0.84375 -3.953125q0.859375 -1.75 2.40625 -2.71875q1.546875 -0.96875 3.4375 -0.96875q3.03125 0 4.671875 1.921875q1.65625 1.921875 1.65625 5.453125l0 1.34375l-9.671875 0q0.15625 1.828125 1.21875 2.90625q1.078125 1.0625 2.703125 1.0625q2.28125 0 3.71875 -1.84375l1.796875 1.703125q-0.890625 1.328125 -2.375 2.0625q-1.484375 0.734375 -3.328125 0.734375zm-0.390625 -12.6875q-1.375 0 -2.21875 0.96875q-0.84375 0.953125 -1.0625 2.65625l6.328125 0l0 -0.25q-0.109375 -1.65625 -0.890625 -2.515625q-0.78125 -0.859375 -2.15625 -0.859375zm16.201172 12.40625l0 -19.90625l6.8125 0q3.375 0 5.140625 1.359375q1.765625 1.34375 1.765625 4.03125q0 1.359375 -0.734375 2.453125q-0.734375 1.09375 -2.15625 1.703125q1.609375 0.4375 2.484375 1.65625q0.890625 1.203125 0.890625 2.890625q0 2.796875 -1.796875 4.3125q-1.796875 1.5 -5.15625 1.5l-7.25 0zm3.453125 -8.984375l0 6.21875l3.84375 0q1.625 0 2.53125 -0.796875q0.921875 -0.8125 0.921875 -2.25q0 -3.109375 -3.171875 -3.171875l-4.125 0zm0 -2.546875l3.390625 0q1.609375 0 2.515625 -0.71875q0.921875 -0.734375 0.921875 -2.078125q0 -1.484375 -0.84375 -2.140625q-0.84375 -0.65625 -2.625 -0.65625l-3.359375 0l0 5.59375zm17.414062 11.53125l-3.3125 0l0 -14.796875l3.3125 0l0 14.796875zm-3.53125 -18.640625q0 -0.765625 0.484375 -1.265625q0.5 -0.5 1.390625 -0.5q0.90625 0 1.390625 0.5q0.5 0.5 0.5 1.265625q0 0.75 -0.5 1.25q-0.484375 0.5 -1.390625 0.5q-0.890625 0 -1.390625 -0.5q-0.484375 -0.5 -0.484375 -1.25zm10.681641 18.640625l-3.3125 0l0 -21.0l3.3125 0l0 21.0zm2.9941406 -7.5q0 -3.421875 1.578125 -5.484375q1.59375 -2.078125 4.265625 -2.078125q2.34375 0 3.796875 1.640625l0 -7.578125l3.328125 0l0 21.0l-3.015625 0l-0.15625 -1.53125q-1.5 1.8125 -3.984375 1.8125q-2.59375 0 -4.203125 -2.09375q-1.609375 -2.09375 -1.609375 -5.6875zm3.328125 0.28125q0 2.25 0.859375 3.515625q0.875 1.265625 2.46875 1.265625q2.046875 0 2.984375 -1.8125l0 -6.3125q-0.921875 -1.78125 -2.953125 -1.78125q-1.609375 0 -2.484375 1.28125q-0.875 1.265625 -0.875 3.84375zm19.617188 7.5q-3.15625 0 -5.125 -1.984375q-1.953125 -2.0 -1.953125 -5.3125l0 -0.40625q0 -2.21875 0.84375 -3.953125q0.859375 -1.75 2.40625 -2.71875q1.546875 -0.96875 3.4375 -0.96875q3.03125 0 4.671875 1.921875q1.65625 1.921875 1.65625 5.453125l0 1.34375l-9.671875 0q0.15625 1.828125 1.21875 2.90625q1.078125 1.0625 2.703125 1.0625q2.28125 0 3.71875 -1.84375l1.796875 1.703125q-0.890625 1.328125 -2.375 2.0625q-1.484375 0.734375 -3.328125 0.734375zm-0.390625 -12.6875q-1.375 0 -2.21875 0.96875q-0.84375 0.953125 -1.0625 2.65625l6.328125 0l0 -0.25q-0.109375 -1.65625 -0.890625 -2.515625q-0.78125 -0.859375 -2.15625 -0.859375zm16.65039 0.640625q-0.65625 -0.109375 -1.359375 -0.109375q-2.28125 0 -3.078125 1.75l0 10.125l-3.3125 0l0 -14.796875l3.171875 0l0.078125 1.65625q1.203125 -1.921875 3.328125 -1.921875q0.71875 0 1.1875 0.1875l-0.015625 3.109375z" fill-rule="nonzero"/><path fill="#ffffff" d="m108.85076 269.25323q-0.21875 -0.421875 -0.390625 -1.375q-1.578125 1.65625 -3.875 1.65625q-2.234375 0 -3.640625 -1.265625q-1.40625 -1.28125 -1.40625 -3.15625q0 -2.375 1.75 -3.625q1.765625 -1.265625 5.03125 -1.265625l2.03125 0l0 -0.984375q0 -1.140625 -0.640625 -1.828125q-0.640625 -0.6875 -1.953125 -0.6875q-1.140625 0 -1.859375 0.5625q-0.71875 0.5625 -0.71875 1.4375l-3.328125 0q0 -1.21875 0.796875 -2.265625q0.8125 -1.0625153 2.203125 -1.6562653q1.390625 -0.609375 3.09375 -0.609375q2.59375 0 4.140625 1.3125q1.546875 1.2968903 1.59375 3.6562653l0 6.671875q0 2.0 0.5625 3.1875l0 0.234375l-3.390625 0zm-3.65625 -2.390625q0.984375 0 1.84375 -0.46875q0.875 -0.484375 1.3125 -1.296875l0 -2.796875l-1.78125 0q-1.859375 0 -2.796875 0.65625q-0.921875 0.640625 -0.921875 1.8125q0 0.953125 0.640625 1.53125q0.640625 0.5625 1.703125 0.5625zm13.0390625 -12.406265l0.09375 1.7187653q1.640625 -1.9843903 4.3125 -1.9843903q4.625 0 4.703125 5.2812653l0 9.78125l-3.328125 0l0 -9.578125q0 -1.421875 -0.609375 -2.09375q-0.59375 -0.671875 -1.984375 -0.671875q-2.0 0 -2.984375 1.8125l0 10.53125l-3.328125 0l0 -14.79689l3.125 0zm16.041008 12.14064l7.875 0l0 2.65625l-12.0 0l0 -2.171875l7.5 -9.9375l-7.359375 0l0 -2.6875153l11.578125 0l0 2.1093903l-7.59375 10.03125zm16.832031 2.9375q-3.15625 0 -5.125 -1.984375q-1.953125 -2.0 -1.953125 -5.3125l0 -0.40625q0 -2.21875 0.84375 -3.953125q0.859375 -1.75 2.40625 -2.7187653q1.546875 -0.96875 3.4375 -0.96875q3.03125 0 4.671875 1.9218903q1.65625 1.921875 1.65625 5.453125l0 1.34375l-9.671875 0q0.15625 1.828125 1.21875 2.90625q1.078125 1.0625 2.703125 1.0625q2.28125 0 3.71875 -1.84375l1.796875 1.703125q-0.890625 1.328125 -2.375 2.0625q-1.484375 0.734375 -3.328125 0.734375zm-0.390625 -12.6875q-1.375 0 -2.21875 0.96875q-0.84375 0.953125 -1.0625 2.65625l6.328125 0l0 -0.25q-0.109375 -1.65625 -0.890625 -2.515625q-0.78125 -0.859375 -2.15625 -0.859375zm12.431641 12.40625l-3.3125 0l0 -14.79689l3.3125 0l0 14.79689zm-3.53125 -18.64064q0 -0.765625 0.484375 -1.265625q0.5 -0.5 1.390625 -0.5q0.90625 0 1.390625 0.5q0.5 0.5 0.5 1.265625q0 0.75 -0.5 1.25q-0.484375 0.5 -1.390625 0.5q-0.890625 0 -1.390625 -0.5q-0.484375 -0.5 -0.484375 -1.25zm6.5722656 11.14064q0 -3.453125 1.609375 -5.5q1.625 -2.0625153 4.3125 -2.0625153q2.53125 0 3.96875 1.765625l0.15625 -1.5l3.0 0l0 14.343765q0 2.921875 -1.8125 4.59375q-1.8125 1.6875 -4.890625 1.6875q-1.625 0 -3.1875 -0.6875q-1.546875 -0.671875 -2.359375 -1.765625l1.578125 -2.0q1.53125 1.828125 3.78125 1.828125q1.640625 0 2.59375 -0.90625q0.96875 -0.890625 0.96875 -2.625l0 -1.0q-1.4375 1.609375 -3.828125 1.609375q-2.59375 0 -4.25 -2.0625q-1.640625 -2.078125 -1.640625 -5.71875zm3.3125 0.28125q0 2.234375 0.90625 3.515625q0.90625 1.265625 2.515625 1.265625q2.015625 0 2.984375 -1.71875l0 -6.515625q-0.9375 -1.671875 -2.953125 -1.671875q-1.640625 0 -2.546875 1.296875q-0.90625 1.296875 -0.90625 3.828125zm19.654297 7.5q-3.15625 0 -5.125 -1.984375q-1.953125 -2.0 -1.953125 -5.3125l0 -0.40625q0 -2.21875 0.84375 -3.953125q0.859375 -1.75 2.40625 -2.7187653q1.546875 -0.96875 3.4375 -0.96875q3.03125 0 4.671875 1.9218903q1.65625 1.921875 1.65625 5.453125l0 1.34375l-9.671875 0q0.15625 1.828125 1.21875 2.90625q1.078125 1.0625 2.703125 1.0625q2.28125 0 3.71875 -1.84375l1.796875 1.703125q-0.890625 1.328125 -2.375 2.0625q-1.484375 0.734375 -3.328125 0.734375zm-0.390625 -12.6875q-1.375 0 -2.21875 0.96875q-0.84375 0.953125 -1.0625 2.65625l6.328125 0l0 -0.25q-0.109375 -1.65625 -0.890625 -2.515625q-0.78125 -0.859375 -2.15625 -0.859375zm11.978516 -2.3906403l0.09375 1.7187653q1.640625 -1.9843903 4.3125 -1.9843903q4.625 0 4.703125 5.2812653l0 9.78125l-3.328125 0l0 -9.578125q0 -1.421875 -0.609375 -2.09375q-0.59375 -0.671875 -1.984375 -0.671875q-2.0 0 -2.984375 1.8125l0 10.53125l-3.328125 0l0 -14.79689l3.125 0zm23.013672 12.14064l7.875 0l0 2.65625l-12.0 0l0 -2.171875l7.5 -9.9375l-7.359375 0l0 -2.6875153l11.578125 0l0 2.1093903l-7.59375 10.03125zm19.503906 1.203125q-1.46875 1.734375 -4.15625 1.734375q-2.40625 0 -3.65625 -1.40625q-1.234375 -1.421875 -1.234375 -4.078125l0 -9.593765l3.328125 0l0 9.54689q0 2.8125 2.328125 2.8125q2.421875 0 3.28125 -1.734375l0 -10.625015l3.3125 0l0 14.79689l-3.125 0l-0.078125 -1.453125zm18.375015 -4.890625l-1.484375 1.515625l0 4.828125l-3.328125 0l0 -21.000015l3.328125 0l0 12.10939l1.046875 -1.296875l4.078125 -4.6093903l4.0 0l-5.5 6.1718903l6.078125 8.625l-3.84375 0l-4.375 -6.34375zm9.177734 -1.1875q0 -2.171875 0.859375 -3.90625q0.859375 -1.75 2.421875 -2.6875153q1.5625 -0.9375 3.578125 -0.9375q3.0 0 4.859375 1.9218903q1.875 1.921875 2.03125 5.109375l0 0.78125q0 2.1875 -0.84375 3.921875q-0.828125 1.71875 -2.40625 2.671875q-1.5625 0.9375 -3.609375 0.9375q-3.125 0 -5.015625 -2.078125q-1.875 -2.09375 -1.875 -5.578125l0 -0.15625zm3.328125 0.28125q0 2.28125 0.9375 3.578125q0.953125 1.296875 2.625 1.296875q1.6875 0 2.625 -1.3125q0.9375 -1.3125 0.9375 -3.84375q0 -2.25 -0.96875 -3.5625q-0.96875 -1.3125 -2.625 -1.3125q-1.625 0 -2.578125 1.296875q-0.953125 1.296875 -0.953125 3.859375zm-1.375 -11.42189q0 -0.6875 0.453125 -1.15625q0.46875 -0.46875 1.265625 -0.46875q0.8125 0 1.28125 0.46875q0.46875 0.46875 0.46875 1.15625q0 0.671875 -0.46875 1.140625q-0.46875 0.46875 -1.28125 0.46875q-0.796875 0 -1.265625 -0.46875q-0.453125 -0.46875 -0.453125 -1.140625zm6.25 0.015625q0 -0.6875 0.453125 -1.15625q0.46875 -0.46875 1.265625 -0.46875q0.8125 0 1.28125 0.46875q0.46875 0.46875 0.46875 1.15625q0 0.671875 -0.46875 1.140625q-0.46875 0.46875 -1.28125 0.46875q-0.796875 0 -1.265625 -0.46875q-0.453125 -0.46875 -0.453125 -1.140625zm11.441406 3.859375l0.09375 1.7187653q1.640625 -1.9843903 4.3125 -1.9843903q4.625 0 4.703125 5.2812653l0 9.78125l-3.328125 0l0 -9.578125q0 -1.421875 -0.609375 -2.09375q-0.59375 -0.671875 -1.984375 -0.671875q-2.0 0 -2.984375 1.8125l0 10.53125l-3.328125 0l0 -14.79689l3.125 0zm15.572266 0l0.09375 1.7187653q1.640625 -1.9843903 4.3125 -1.9843903q4.625 0 4.703125 5.2812653l0 9.78125l-3.328125 0l0 -9.578125q0 -1.421875 -0.609375 -2.09375q-0.59375 -0.671875 -1.984375 -0.671875q-2.0 0 -2.984375 1.8125l0 10.53125l-3.328125 0l0 -14.79689l3.125 0zm19.009766 15.07814q-3.15625 0 -5.125 -1.984375q-1.953125 -2.0 -1.953125 -5.3125l0 -0.40625q0 -2.21875 0.84375 -3.953125q0.859375 -1.75 2.40625 -2.7187653q1.546875 -0.96875 3.4375 -0.96875q3.03125 0 4.671875 1.9218903q1.65625 1.921875 1.65625 5.453125l0 1.34375l-9.671875 0q0.15625 1.828125 1.21875 2.90625q1.078125 1.0625 2.703125 1.0625q2.28125 0 3.71875 -1.84375l1.796875 1.703125q-0.890625 1.328125 -2.375 2.0625q-1.484375 0.734375 -3.328125 0.734375zm-0.390625 -12.6875q-1.375 0 -2.21875 0.96875q-0.84375 0.953125 -1.0625 2.65625l6.328125 0l0 -0.25q-0.109375 -1.65625 -0.890625 -2.515625q-0.78125 -0.859375 -2.15625 -0.859375zm11.978516 -2.3906403l0.09375 1.7187653q1.640625 -1.9843903 4.3125 -1.9843903q4.625 0 4.703125 5.2812653l0 9.78125l-3.328125 0l0 -9.578125q0 -1.421875 -0.609375 -2.09375q-0.59375 -0.671875 -1.984375 -0.671875q-2.0 0 -2.984375 1.8125l0 10.53125l-3.328125 0l0 -14.79689l3.125 0zm14.572266 11.29689q0.921875 0 1.421875 0.53125q0.515625 0.515625 0.515625 1.3125q0 0.78125 -0.515625 1.296875q-0.5 0.515625 -1.421875 0.515625q-0.890625 0 -1.421875 -0.5q-0.515625 -0.515625 -0.515625 -1.3125q0 -0.796875 0.5 -1.3125q0.515625 -0.53125 1.4375 -0.53125z" fill-rule="nonzero"/></g></svg>