<?xml version="1.0" encoding="UTF-8" standalone="no"?> <!-- Created with Vectornator for iOS (http://vectornator.io/) --><!DOCTYPE svg PUBLIC "-//W3C//DTD SVG 1.1//EN" "http://www.w3.org/Graphics/SVG/1.1/DTD/svg11.dtd">
<svg style="fill-rule:evenodd;clip-rule:evenodd;stroke-linecap:round;stroke-linejoin:round;" xmlns:vectornator="http://vectornator.io" xmlns:xlink="http://www.w3.org/1999/xlink" xmlns="http://www.w3.org/2000/svg" xml:space="preserve" version="1.1" viewBox="0 0 1024 1024">
<metadata>
<vectornator:setting key="DimensionsVisible" value="1"/>
<vectornator:setting key="SnapToGrid" value="0"/>
<vectornator:setting key="SnapToPoints" value="1"/>
<vectornator:setting key="GuidesVisible" value="1"/>
<vectornator:setting key="RulersVisible" value="1"/>
<vectornator:setting key="SnapToEdges" value="1"/>
<vectornator:setting key="DisplayWhiteBackground" value="1"/>
<vectornator:setting key="SnapToGuides" value="1"/>
<vectornator:setting key="GridSpacing" value="36"/>
<vectornator:setting key="Units" value="Pixels"/>
<vectornator:setting key="DynamicGuides" value="1"/>
<vectornator:setting key="New" value="1"/>
</metadata>
<defs>
<linearGradient y1="167.948" id="LinearGradient" x1="21.548" y2="231.656" x2="69.577" gradientUnits="userSpaceOnUse" gradientTransform="matrix(16.0156 0 0 16.0156 -173.67 -2685.62)">
<stop stop-color="#ffaa32" offset="0.0105884"/>
<stop stop-color="#ff673c" offset="0.957203"/>
</linearGradient>
</defs>
<g id="Ebene 1" vectornator:layerName="Ebene 1">
<path d="M599.362+636.328M561.651+679.35M465.743+679.35M247.579+233.911C236.03+234.8+226.328+242.636+222.543+253.707C222.245+254.579+214.669+278.056+212.645+285.147C205.501+310.181+198.674+337.952+192.268+367.822C183.445+408.96+176.332+450.742+171.308+492.416C169.383+508.386+180.977+522.515+196.926+524.438C212.88+526.361+227.023+514.786+228.948+498.821C233.687+459.505+240.719+420.176+249.325+380.048C255.003+353.574+260.539+329.091+266.792+306.689C295.005+326.995+329.167+358.379+368.68+400.426C379.688+412.14+397.721+412.599+409.435+401.59C421.149+390.582+422.19+372.549+411.182+360.835C368.987+315.933+331.84+282.041+300.56+259.529C290.107+252.005+280.118+246.092+271.449+241.48C266.224+238.7+262.406+236.716+259.223+235.658C255.572+234.444+251.512+233.609+247.579+233.911ZM513.365+662.588C497.165+662.545+482.984+656.724+477.267+664.252C465.2+680.145+486.265+718.598+506.961+721.31C527.475+723.997+559.36+680.795+548.298+664.252C543.147+656.549+529.666+662.63+513.365+662.588ZM407.352+506.972C387.835+504.763+370.644+519.153+367.761+539.576C364.752+560.889+378.401+585.875+396.29+587.9C414.342+589.943+436.479+568.816+439.374+548.309C442.214+528.196+427.459+509.246+407.352+506.972ZM776.724+233.911C772.771+233.607+769.304+234.446+765.661+235.658C762.479+236.717+758.079+238.7+752.853+241.48C744.419+245.967+734.418+251.845+723.742+259.529C692.463+282.042+655.897+315.934+613.703+360.835C602.694+372.549+603.153+390.582+614.867+401.59C626.582+412.598+645.197+412.139+656.204+400.426C695.482+358.629+729.393+327.585+757.51+307.271C763.715+329.543+769.923+353.768+775.559+380.048C783.987+419.347+790.533+458.822+795.355+498.821C797.279+514.785+811.422+526.361+827.377+524.438C843.341+522.514+854.918+508.372+852.994+492.416C847.97+450.74+840.857+408.958+832.034+367.822C825.831+338.898+819.093+311.203+811.657+285.147C809.179+276.464+802.861+255.228+802.341+253.707C798.55+242.619+788.248+234.799+776.724+233.911ZM616.95+511.629C596.815+513.908+582.092+532.878+584.928+552.967C587.667+572.367+608.382+588.309+627.43+586.153C645.659+584.091+660.035+561.361+657.123+540.74C654.369+521.232+637.554+509.298+616.95+511.629ZM936.138+570.13C936.138+570.13+867.179+607.855+788.948+637.227C710.716+666.598+623.266+692.679+623.266+692.679C623.266+692.679+686.91+656.347+765.141+626.976C843.373+597.604+936.138+570.13+936.138+570.13ZM940.65+670.392C940.65+670.392+845.597+694.032+775.821+703.349C695.173+714.117+618.518+711.783+618.518+711.783C618.518+711.783+686.591+695.111+755.934+685.472C759.151+685.025+762.371+684.593+765.588+684.178C773.391+683.172+781.172+682.269+788.833+681.503C870.534+673.334+940.65+670.392+940.65+670.392ZM859.92+761.716C859.92+761.716+814.525+764.126+744.515+757.807C662.769+750.429+633.842+725.326+633.842+725.326C633.842+725.326+664.875+727.26+757.988+738.892C822.7+746.976+859.92+761.716+859.92+761.716ZM88.1641+569.09C88.1641+569.09+157.123+606.815+235.354+636.186C313.586+665.558+401.036+691.639+401.036+691.639C401.036+691.639+337.392+655.307+259.161+625.936C180.929+596.564+88.1641+569.09+88.1641+569.09ZM83.6522+669.352C83.6522+669.352+178.705+692.992+248.482+702.309C329.129+713.077+405.784+710.742+405.784+710.742C405.784+710.742+337.711+694.071+268.368+684.432C265.151+683.985+261.931+683.552+258.714+683.138C250.911+682.132+243.131+681.229+235.469+680.463C153.768+672.294+83.6522+669.352+83.6522+669.352ZM164.382+760.675C164.382+760.675+209.777+763.085+279.787+756.767C361.533+749.389+390.46+724.286+390.46+724.286C390.46+724.286+359.427+726.22+266.314+737.852C201.602+745.935+164.382+760.675+164.382+760.675ZM213.709+0C95.6485+0+7.12773e-05+95.6483+0+213.709L0+312.805C0+329.346+13.4888+342.835+30.0293+342.835C46.5698+342.835+60.0587+329.346+60.0587+312.805L60.0587+213.709C60.0587+128.729+128.729+60.0592+213.709+60.0587L312.805+60.0587C329.346+60.0587+342.835+46.5699+342.835+30.0293C342.835+13.4888+329.346-5.60036e-05+312.805+0L213.709+0ZM711.695+0C695.155+0+681.666+13.4889+681.666+30.0293C681.666+46.5698+695.155+60.0585+711.695+60.0587L810.291+60.0587C895.271+60.0587+964.442+128.729+964.442+213.709L964.442+312.805C964.442+329.346+977.931+342.835+994.471+342.835C1011.01+342.835+1024+329.346+1024+312.805L1024+213.709C1024+95.6485+928.352+0.000325839+810.291+0L711.695+0ZM30.0293+681.666C13.4888+681.666-5.09124e-06+695.154+0+711.695L0+810.291C0+928.352+95.6484+1024.5+213.709+1024.5L312.805+1024.5C329.346+1024.5+342.835+1011.01+342.835+994.471C342.835+977.931+329.346+964.442+312.805+964.442L213.709+964.442C128.729+964.442+60.0586+895.271+60.0587+810.291L60.0587+711.695C60.0587+695.155+46.5699+681.665+30.0293+681.666ZM994.471+681.666C977.931+681.666+964.442+695.154+964.442+711.695L964.442+810.291C964.442+895.271+895.271+964.441+810.291+964.442L711.695+964.442C695.155+964.442+681.666+977.931+681.666+994.471C681.666+1011.01+695.155+1024.5+711.695+1024.5L810.291+1024.5C928.352+1024.5+1024+928.352+1024+810.291L1024+711.695C1024+695.155+1011.01+681.665+994.471+681.666Z" opacity="1" fill="url(#LinearGradient)"/>
</g>
</svg>
