<?xml version="1.0" encoding="UTF-8" standalone="no"?> <!-- Created with Vectornator for iOS (http://vectornator.io/) --><!DOCTYPE svg PUBLIC "-//W3C//DTD SVG 1.1//EN" "http://www.w3.org/Graphics/SVG/1.1/DTD/svg11.dtd">
<svg style="fill-rule:evenodd;clip-rule:evenodd;stroke-linecap:round;stroke-linejoin:round;" xmlns:vectornator="http://vectornator.io" xmlns:xlink="http://www.w3.org/1999/xlink" xmlns="http://www.w3.org/2000/svg" xml:space="preserve" version="1.1" viewBox="0 0 1024 1024">
<metadata>
<vectornator:setting key="DimensionsVisible" value="1"/>
<vectornator:setting key="SnapToGrid" value="0"/>
<vectornator:setting key="SnapToPoints" value="1"/>
<vectornator:setting key="GuidesVisible" value="1"/>
<vectornator:setting key="RulersVisible" value="1"/>
<vectornator:setting key="SnapToEdges" value="1"/>
<vectornator:setting key="DisplayWhiteBackground" value="1"/>
<vectornator:setting key="SnapToGuides" value="1"/>
<vectornator:setting key="GridSpacing" value="36"/>
<vectornator:setting key="Units" value="Pixels"/>
<vectornator:setting key="DynamicGuides" value="1"/>
<vectornator:setting key="New" value="1"/>
</metadata>
<defs/>
<g id="Ebene 1" vectornator:layerName="Ebene 1">
<path stroke="#bbbbbb" stroke-width="24.03" d="M-3.35085e-05+2.72763e-05L1024+2.72763e-05L1024+1024L-3.35085e-05+1024L-3.35085e-05+2.72763e-05Z" fill="none" stroke-linecap="square" opacity="1" stroke-linejoin="miter" stroke-dasharray="20,50"/>
<path d="M546.355+342.45C501.566+342.45+463.655+369.256+445.438+407.133C435.742+400.457+424.503+395.592+411.889+395.592C379.883+395.592+354.352+420.922+352.573+452.492C320.567+464.033+297.284+493.892+297.284+529.79C297.284+575.551+334.457+612.724+380.218+612.724L451.88+612.724C454.966+612.757+457.851+611.147+459.428+608.463C460.971+605.779+460.971+602.491+459.428+599.807C457.851+597.123+454.966+595.513+451.88+595.546L380.218+595.546C343.716+595.546+314.461+566.258+314.461+529.79C314.461+499.427+334.926+473.863+362.772+466.18C366.563+465.073+369.113+461.517+368.945+457.591C368.912+456.384+368.945+455.78+368.945+455.713C368.945+431.859+388.035+412.769+411.889+412.769C423.832+412.769+434.702+417.567+442.486+425.384C444.532+427.363+447.451+428.236+450.236+427.632C453.054+427.028+455.369+425.082+456.442+422.432C469.963+385.93+505.055+359.627+546.355+359.627C599.363+359.627+642.172+402.47+642.172+455.444C642.172+459.369+641.87+463.228+641.366+467.254C641.064+469.669+641.803+472.085+643.379+473.93C644.956+475.775+647.271+476.849+649.687+476.916L650.223+476.916C683.068+476.916+709.539+503.386+709.539+536.231C709.539+569.076+683.068+595.546+650.223+595.546L572.12+595.546C569.034+595.513+566.149+597.123+564.572+599.807C563.029+602.491+563.029+605.779+564.572+608.463C566.149+611.147+569.034+612.757+572.12+612.724L650.223+612.724C692.361+612.724+726.716+578.369+726.716+536.231C726.716+497.146+696.723+466.079+658.812+461.617C658.946+459.537+659.349+457.591+659.349+455.444C659.349+393.177+608.622+342.45+546.355+342.45ZM512+488.994L505.827+494.898L462.884+537.841C459.462+541.263+459.462+546.766+462.884+550.188C466.306+553.61+471.808+553.61+475.23+550.188L503.411+522.006L503.411+672.844C503.378+675.931+504.988+678.816+507.672+680.393C510.356+681.936+513.644+681.936+516.328+680.393C519.012+678.816+520.622+675.931+520.589+672.844L520.589+522.006L548.77+550.188C552.192+553.61+557.694+553.61+561.116+550.188C564.538+546.766+564.538+541.263+561.116+537.841L518.173+494.898L512+488.994Z" opacity="1" fill="#bbbbbb"/>
</g>
</svg>
