<?xml version="1.0" standalone="no"?>
<!DOCTYPE svg PUBLIC "-//W3C//DTD SVG 20010904//EN"
 "http://www.w3.org/TR/2001/REC-SVG-20010904/DTD/svg10.dtd">
<svg version="1.0" xmlns="http://www.w3.org/2000/svg"
 width="700.000000pt" height="700.000000pt" viewBox="0 0 700.000000 700.000000"
 preserveAspectRatio="xMidYMid meet">
<metadata>
Created by potrace 1.11, written by Peter Selinger 2001-2013
</metadata>
<g transform="translate(0.000000,700.000000) scale(0.100000,-0.100000)"
fill="#000000" stroke="none">
<path d="M1250 6985 c-119 -21 -133 -24 -206 -45 -372 -112 -707 -389 -877
-725 -73 -144 -123 -288 -142 -405 -3 -19 -9 -60 -14 -90 -5 -30 -8 -248 -8
-485 2 -415 3 -431 23 -470 43 -82 146 -125 238 -98 58 17 121 77 135 130 6
23 11 196 12 428 0 215 5 419 10 455 10 69 38 188 47 205 4 6 7 15 8 20 1 6
14 37 30 70 89 191 221 341 399 456 65 42 116 66 211 98 162 55 202 59 652 60
256 1 423 6 440 12 107 41 162 168 118 274 -20 48 -76 99 -125 114 -57 17
-846 13 -951 -4z"/>
<path d="M4768 6973 c-93 -54 -132 -163 -90 -254 26 -58 72 -103 119 -117 26
-8 171 -12 443 -12 380 -1 436 -4 550 -31 113 -27 288 -106 347 -156 14 -13
30 -23 35 -23 17 0 196 -187 235 -245 62 -92 132 -243 149 -320 33 -144 35
-180 37 -590 2 -390 4 -422 21 -455 37 -69 113 -114 188 -112 81 1 135 37 177
117 20 38 21 51 20 465 -1 402 -5 469 -33 620 -13 64 -75 238 -115 321 -34 69
-114 203 -131 219 -3 3 -21 25 -39 50 -189 246 -509 447 -821 514 -41 9 -88
19 -105 22 -16 4 -235 9 -485 11 l-455 3 -47 -27z"/>
<path d="M1640 5389 c-45 -18 -87 -58 -108 -102 -35 -75 -180 -596 -205 -742
-3 -16 -8 -39 -11 -50 -2 -11 -14 -69 -26 -130 -12 -60 -24 -119 -26 -130 -4
-22 -32 -183 -40 -230 -2 -16 -9 -55 -14 -85 -5 -30 -12 -77 -15 -105 -4 -27
-8 -61 -10 -75 -23 -139 -13 -208 37 -261 82 -86 220 -84 294 4 39 46 48 81
69 252 9 67 15 109 40 250 8 50 17 104 20 120 3 17 16 84 30 150 13 66 27 131
29 145 7 39 84 368 101 433 8 32 15 61 15 64 0 9 49 -26 130 -91 125 -101 268
-235 469 -439 69 -71 142 -137 161 -146 54 -28 137 -23 188 11 84 56 115 159
75 248 -31 68 -373 409 -601 599 -181 151 -345 259 -460 304 -47 19 -104 21
-142 6z"/>
<path d="M5175 5362 c-155 -75 -314 -190 -530 -382 -116 -103 -464 -458 -480
-490 -62 -120 14 -268 148 -286 91 -13 112 1 315 204 183 183 258 254 358 339
27 23 63 53 79 67 17 14 49 39 71 56 l42 30 6 -23 c16 -57 95 -367 100 -393 3
-16 17 -83 31 -149 39 -184 94 -516 111 -666 10 -100 33 -161 74 -200 86 -82
232 -67 297 32 25 37 28 52 28 118 0 69 -10 173 -20 211 -2 8 -6 35 -9 60 -3
25 -8 54 -10 65 -2 11 -7 43 -10 70 -4 28 -9 57 -11 65 -2 8 -7 29 -9 45 -59
343 -156 750 -272 1138 -9 30 -65 87 -103 106 -63 31 -116 27 -206 -17z"/>
<path d="M2679 3520 c-67 -23 -132 -90 -153 -158 -21 -71 -14 -167 19 -235 76
-161 209 -190 340 -75 73 63 126 174 120 248 -6 87 -61 170 -138 208 -61 30
-121 34 -188 12z"/>
<path d="M4197 3499 c-118 -27 -201 -130 -199 -246 1 -131 123 -253 256 -259
79 -3 136 29 185 103 91 138 62 306 -65 379 -40 23 -127 34 -177 23z"/>
<path d="M630 3097 c7 -8 322 -165 425 -212 364 -167 740 -310 1260 -478 370
-120 416 -134 408 -126 -17 17 -442 227 -583 288 -80 35 -161 70 -180 79 -131
59 -912 328 -1220 420 -110 33 -115 35 -110 29z"/>
<path d="M6305 3075 c-38 -13 -131 -42 -205 -65 -535 -167 -958 -321 -1302
-476 -159 -71 -521 -254 -515 -260 1 -2 72 19 157 46 503 157 1033 346 1265
450 335 150 675 314 675 325 0 3 -1 5 -2 4 -2 0 -34 -11 -73 -24z"/>
<path d="M3273 2466 c-53 -46 -37 -173 34 -276 47 -67 122 -120 170 -120 149
0 353 304 264 394 -19 18 -30 20 -89 17 -101 -6 -219 -6 -291 0 -55 5 -66 3
-88 -15z"/>
<path d="M595 2423 c6 -5 66 -22 135 -37 69 -15 132 -29 140 -31 114 -27 432
-92 535 -110 17 -2 39 -7 50 -9 25 -5 158 -25 205 -31 19 -2 51 -6 70 -9 19
-3 60 -8 90 -11 30 -4 66 -8 80 -10 14 -2 70 -7 125 -11 55 -3 118 -8 140 -10
22 -2 166 -6 320 -9 261 -5 276 -4 227 10 -30 8 -68 17 -85 20 -18 3 -39 8
-47 10 -8 2 -26 6 -40 9 -14 2 -59 12 -100 21 -118 26 -346 67 -495 89 -176
27 -231 34 -305 41 -30 3 -75 8 -100 10 -25 3 -70 7 -100 10 -133 11 -198 16
-240 20 -25 2 -92 7 -149 11 -57 3 -112 7 -121 9 -9 2 -86 6 -171 10 -85 4
-158 9 -164 12 -7 4 -7 3 0 -4z"/>
<path d="M6359 2416 c-2 -2 -65 -7 -139 -10 -74 -4 -153 -9 -175 -11 -22 -2
-85 -7 -140 -10 -201 -14 -334 -25 -365 -30 -14 -2 -56 -6 -95 -10 -69 -6
-100 -9 -200 -21 -63 -7 -292 -42 -325 -48 -13 -3 -42 -8 -64 -12 -118 -17
-546 -107 -587 -123 -16 -6 54 -8 201 -5 248 3 409 11 590 29 25 3 70 7 100
10 132 13 351 47 573 90 15 3 37 7 50 9 12 3 47 10 77 16 30 6 69 14 85 16 17
3 48 10 70 16 22 5 49 12 60 14 43 8 63 13 147 33 107 25 139 32 155 33 7 1
10 5 7 10 -5 8 -18 11 -25 4z"/>
<path d="M124 2323 c-57 -33 -84 -61 -105 -108 -20 -46 -21 -58 -16 -499 4
-415 6 -459 26 -546 83 -371 267 -661 559 -880 126 -94 264 -168 402 -214 208
-69 207 -69 727 -73 454 -4 473 -4 510 15 154 79 153 285 -2 370 -26 15 -79
17 -440 19 -452 1 -526 8 -674 62 -305 111 -538 347 -640 646 -55 161 -59 211
-61 654 -1 376 -2 408 -20 448 -21 48 -29 58 -78 92 -45 32 -144 39 -188 14z"/>
<path d="M6715 2321 c-47 -22 -78 -53 -103 -105 -17 -35 -19 -70 -19 -422 -1
-377 -5 -483 -23 -544 -5 -16 -7 -30 -5 -30 10 0 -60 -181 -96 -250 -137 -264
-400 -467 -691 -534 -110 -25 -165 -28 -564 -29 -426 0 -430 -1 -491 -60 -99
-94 -74 -263 47 -325 l45 -22 470 3 c400 3 481 6 545 21 293 67 530 195 731
396 241 240 388 535 428 860 14 119 14 872 0 921 -33 110 -168 169 -274 120z"/>
<path d="M2607 2044 c-1 -1 -40 -5 -87 -9 -47 -3 -92 -8 -100 -10 -8 -2 -51
-7 -95 -10 -82 -7 -89 -8 -185 -20 -30 -4 -66 -9 -80 -10 -14 -1 -50 -6 -80
-9 -30 -4 -71 -9 -90 -11 -95 -11 -237 -32 -280 -40 -207 -41 -425 -96 -460
-116 -16 -9 1 -10 155 -11 90 -1 414 11 470 16 17 2 64 7 105 10 218 19 379
51 543 107 114 38 197 77 227 105 12 12 11 14 -13 12 -16 -1 -29 -3 -30 -4z"/>
<path d="M4375 2015 c71 -46 257 -119 356 -139 196 -40 251 -47 539 -71 99 -8
605 -18 599 -11 -5 5 -143 50 -189 61 -151 36 -191 45 -224 51 -21 3 -48 8
-60 10 -34 7 -207 33 -256 38 -25 3 -81 10 -125 15 -44 6 -102 13 -130 16 -27
3 -66 7 -85 10 -33 4 -60 7 -195 21 -33 3 -72 7 -88 9 -15 2 -62 6 -105 10
l-77 6 40 -26z"/>
</g>
</svg>
